<svg width="48" height="48" viewBox="0 0 48 48" fill="none" xmlns="http://www.w3.org/2000/svg">
<path d="M29.5713 30.8571C30.5943 30.8571 31.5754 31.2635 32.2987 31.9869C33.0221 32.7102 33.4285 33.6913 33.4285 34.7143V37.2891L33.4148 37.4743C32.8833 41.1206 29.609 42.8726 24.1148 42.8726C18.641 42.8726 15.3136 41.1411 14.5953 37.5377L14.5713 37.2857V34.7143C14.5713 33.6913 14.9777 32.7102 15.7011 31.9869C16.4244 31.2635 17.4055 30.8571 18.4285 30.8571H29.5713ZM29.5713 33.4286H18.4285C18.0875 33.4286 17.7604 33.564 17.5193 33.8051C17.2782 34.0463 17.1428 34.3733 17.1428 34.7143V37.1486C17.6228 39.2057 19.7999 40.3011 24.1148 40.3011C28.4279 40.3011 30.509 39.2194 30.857 37.188V34.7143C30.857 34.3733 30.7216 34.0463 30.4805 33.8051C30.2393 33.564 29.9123 33.4286 29.5713 33.4286ZM31.2753 20.5697L40.7142 20.5714C41.7372 20.5714 42.7182 20.9778 43.4416 21.7012C44.1649 22.4245 44.5713 23.4056 44.5713 24.4286V27.0034L44.5576 27.1886C44.0262 30.8349 40.7519 32.5869 35.2576 32.5869L34.7176 32.5817C34.2114 31.3614 33.2887 30.3603 32.1136 29.7566C32.9965 29.928 34.0422 30.0154 35.2576 30.0154C39.5708 30.0154 41.6519 28.9337 41.9999 26.9023V24.4286C41.9999 24.0876 41.8644 23.7605 41.6233 23.5194C41.3822 23.2783 41.0552 23.1429 40.7142 23.1429H31.7142C31.7142 22.2411 31.5599 21.3737 31.2753 20.5697ZM7.28561 20.5714L16.7245 20.5697C16.4824 21.2545 16.3387 21.9702 16.2976 22.6954L16.2856 23.1429H7.28561C6.94462 23.1429 6.61759 23.2783 6.37647 23.5194C6.13535 23.7605 5.9999 24.0876 5.9999 24.4286V26.8629C6.4799 28.92 8.65704 30.0154 12.9719 30.0154C14.0382 30.0154 14.9673 29.9486 15.7696 29.8183C14.6475 30.428 13.7684 31.404 13.2788 32.5834L12.9702 32.5869C7.49818 32.5869 4.17075 30.8554 3.45247 27.252L3.42847 27V24.4286C3.42847 23.4056 3.83484 22.4245 4.5582 21.7012C5.28155 20.9778 6.26263 20.5714 7.28561 20.5714ZM23.9999 17.1429C25.5912 17.1429 27.1173 17.775 28.2425 18.9002C29.3678 20.0254 29.9999 21.5516 29.9999 23.1429C29.9999 24.7342 29.3678 26.2603 28.2425 27.3855C27.1173 28.5107 25.5912 29.1429 23.9999 29.1429C22.4086 29.1429 20.8825 28.5107 19.7573 27.3855C18.632 26.2603 17.9999 24.7342 17.9999 23.1429C17.9999 21.5516 18.632 20.0254 19.7573 18.9002C20.8825 17.775 22.4086 17.1429 23.9999 17.1429ZM23.9999 19.7143C23.0906 19.7143 22.2185 20.0755 21.5755 20.7185C20.9325 21.3615 20.5713 22.2335 20.5713 23.1429C20.5713 24.0522 20.9325 24.9242 21.5755 25.5672C22.2185 26.2102 23.0906 26.5714 23.9999 26.5714C24.9092 26.5714 25.7813 26.2102 26.4243 25.5672C27.0672 24.9242 27.4285 24.0522 27.4285 23.1429C27.4285 22.2335 27.0672 21.3615 26.4243 20.7185C25.7813 20.0755 24.9092 19.7143 23.9999 19.7143ZM35.1428 6.85714C36.7341 6.85714 38.2602 7.48928 39.3854 8.6145C40.5106 9.73972 41.1428 11.2658 41.1428 12.8571C41.1428 14.4484 40.5106 15.9746 39.3854 17.0998C38.2602 18.225 36.7341 18.8571 35.1428 18.8571C33.5515 18.8571 32.0253 18.225 30.9001 17.0998C29.7749 15.9746 29.1428 14.4484 29.1428 12.8571C29.1428 11.2658 29.7749 9.73972 30.9001 8.6145C32.0253 7.48928 33.5515 6.85714 35.1428 6.85714ZM12.857 6.85714C14.4483 6.85714 15.9745 7.48928 17.0997 8.6145C18.2249 9.73972 18.857 11.2658 18.857 12.8571C18.857 14.4484 18.2249 15.9746 17.0997 17.0998C15.9745 18.225 14.4483 18.8571 12.857 18.8571C11.2657 18.8571 9.73962 18.225 8.6144 17.0998C7.48918 15.9746 6.85704 14.4484 6.85704 12.8571C6.85704 11.2658 7.48918 9.73972 8.6144 8.6145C9.73962 7.48928 11.2657 6.85714 12.857 6.85714ZM35.1428 9.42857C34.2334 9.42857 33.3614 9.78979 32.7184 10.4328C32.0754 11.0758 31.7142 11.9478 31.7142 12.8571C31.7142 13.7665 32.0754 14.6385 32.7184 15.2815C33.3614 15.9245 34.2334 16.2857 35.1428 16.2857C36.0521 16.2857 36.9241 15.9245 37.5671 15.2815C38.2101 14.6385 38.5713 13.7665 38.5713 12.8571C38.5713 11.9478 38.2101 11.0758 37.5671 10.4328C36.9241 9.78979 36.0521 9.42857 35.1428 9.42857ZM12.857 9.42857C11.9477 9.42857 11.0757 9.78979 10.4327 10.4328C9.78969 11.0758 9.42847 11.9478 9.42847 12.8571C9.42847 13.7665 9.78969 14.6385 10.4327 15.2815C11.0757 15.9245 11.9477 16.2857 12.857 16.2857C13.7664 16.2857 14.6384 15.9245 15.2814 15.2815C15.9244 14.6385 16.2856 13.7665 16.2856 12.8571C16.2856 11.9478 15.9244 11.0758 15.2814 10.4328C14.6384 9.78979 13.7664 9.42857 12.857 9.42857Z" fill="white"/>
</svg>
