<svg width="48" height="48" viewBox="0 0 48 48" fill="none" xmlns="http://www.w3.org/2000/svg">
<path d="M23.9999 40.32C14.9759 40.32 7.67993 33.024 7.67993 24C7.67993 14.976 14.9759 7.68 23.9999 7.68C33.0239 7.68 40.3199 14.976 40.3199 24C40.3199 33.024 33.0239 40.32 23.9999 40.32ZM23.9999 9.6C16.0319 9.6 9.59993 16.032 9.59993 24C9.59993 31.968 16.0319 38.4 23.9999 38.4C31.9679 38.4 38.3999 31.968 38.3999 24C38.3999 16.032 31.9679 9.6 23.9999 9.6Z" fill="white"/>
<path d="M29.088 32.352L23.04 26.304V15.36H24.96V25.536L30.432 31.008L29.088 32.352Z" fill="white"/>
</svg>
