<svg width="48" height="48" viewBox="0 0 48 48" fill="none" xmlns="http://www.w3.org/2000/svg">
<path d="M11.999 23.395C7.438 24.822 4.5 27.06 4.5 29.576C4.5 33.886 13.118 37.38 23.75 37.38C34.382 37.38 43 33.886 43 29.576C43 27.06 40.062 24.822 35.502 23.395" stroke="white" stroke-linecap="round" stroke-linejoin="round"/>
<path d="M4.5 29.786C4.5 34.096 9.182 39.671 23.75 39.671C38.318 39.671 43 33.886 43 29.576" stroke="white" stroke-linecap="round" stroke-linejoin="round"/>
<path d="M9.18188 12.99C9.18188 19.105 13.2619 31.054 23.7499 31.054C34.2379 31.054 38.3169 19.105 38.3169 12.991" stroke="white" stroke-linecap="round" stroke-linejoin="round"/>
<path d="M23.7501 17.653C31.7952 17.653 38.3171 15.5658 38.3171 12.991C38.3171 10.4163 31.7952 8.329 23.7501 8.329C15.705 8.329 9.18311 10.4163 9.18311 12.991C9.18311 15.5658 15.705 17.653 23.7501 17.653Z" stroke="white" stroke-linecap="round" stroke-linejoin="round"/>
<path d="M36.1469 22.126C42.1869 23.206 43.4999 19.769 43.4999 17.183C43.4999 14.597 42.5079 12.991 40.2239 12.991C39.8507 12.9924 39.4826 13.0781 39.147 13.2415C38.8115 13.405 38.5171 13.642 38.2859 13.935M37.6519 14.386C35.9479 12.442 30.3689 11.017 23.7499 11.017C17.1309 11.017 11.5519 12.442 9.84692 14.387L37.6519 14.386Z" stroke="white" stroke-linecap="round" stroke-linejoin="round"/>
</svg>
