<svg width="24" height="24" viewBox="0 0 24 24" fill="none" xmlns="http://www.w3.org/2000/svg">
<path d="M19.5525 2.997C19.3117 3.01452 19.0754 3.071 18.8527 3.16425H18.8497C18.636 3.249 17.6197 3.6765 16.0747 4.3245L10.5382 6.65625C6.56547 8.32875 2.66022 9.97575 2.66022 9.97575L2.70672 9.95775C2.70672 9.95775 2.43747 10.0463 2.15622 10.239C1.98246 10.3496 1.83295 10.4942 1.71672 10.6643C1.57872 10.8668 1.46772 11.1765 1.50897 11.4968C1.57647 12.0383 1.92747 12.363 2.17947 12.5423C2.43447 12.7238 2.67747 12.8085 2.67747 12.8085H2.68347L6.34572 14.0423C6.50997 14.5695 7.46172 17.6985 7.69047 18.4193C7.82547 18.8498 7.95672 19.119 8.12097 19.3245C8.20047 19.4295 8.29347 19.5173 8.40522 19.5878C8.46331 19.6215 8.52526 19.6482 8.58972 19.6673L8.55222 19.6583C8.56347 19.6613 8.57247 19.6703 8.58072 19.6733C8.61072 19.6815 8.63097 19.6845 8.66922 19.6905C9.24897 19.866 9.71472 19.506 9.71472 19.506L9.74097 19.485L11.9032 17.5163L15.5272 20.2965L15.6097 20.3318C16.365 20.6633 17.13 20.4788 17.5342 20.1533C17.9415 19.8255 18.0997 19.4063 18.0997 19.4063L18.126 19.3388L20.9265 4.992C21.006 4.638 21.0262 4.3065 20.9385 3.98475C20.848 3.65912 20.639 3.37906 20.3527 3.1995C20.1123 3.05334 19.8335 2.98279 19.5525 2.997V2.997ZM19.4767 4.5345C19.4737 4.58175 19.4827 4.5765 19.4617 4.66725V4.6755L16.6875 18.873C16.6755 18.8933 16.6552 18.9375 16.5997 18.9818C16.5412 19.0283 16.4947 19.0575 16.251 18.9608L11.8185 15.5625L9.14097 18.003L9.70347 14.4105L16.9455 7.6605C17.244 7.383 17.1442 7.3245 17.1442 7.3245C17.1652 6.984 16.6935 7.22475 16.6935 7.22475L7.56147 12.882L7.55847 12.867L3.18147 11.3933V11.3903L3.17022 11.388C3.17789 11.3855 3.1854 11.3824 3.19272 11.379L3.21672 11.367L3.23997 11.3588C3.23997 11.3588 7.14822 9.71175 11.121 8.03925C13.11 7.2015 15.114 6.35775 16.6552 5.70675C17.5693 5.322 18.4843 4.9395 19.4002 4.55925C19.4617 4.53525 19.4325 4.53525 19.4767 4.53525V4.5345Z" fill="white"/>
</svg>
