<svg width="18" height="20" viewBox="0 0 18 20" fill="none" xmlns="http://www.w3.org/2000/svg">
<path d="M15.5658 2.33238C15.1061 1.9026 13.2479 0.532128 9.10931 0.513521C9.10931 0.513521 4.22929 0.214226 1.85019 2.43196C0.526027 3.77771 0.0600748 5.74625 0.0107623 8.18847C-0.0379867 10.6306 -0.102041 15.2057 4.23892 16.4467L4.2429 16.4478L4.24063 18.341C4.24063 18.341 4.21342 19.1078 4.70941 19.2636C5.31029 19.4532 5.66286 18.8704 6.23652 18.2425C6.55168 17.8982 6.98588 17.3919 7.31354 17.0048C10.2827 17.2574 12.566 16.678 12.8251 16.5924C13.4248 16.3944 16.8169 15.9534 17.3684 11.3783C17.9375 6.66098 17.0924 3.67814 15.5658 2.33238ZM16.0788 11.0374C15.6123 14.858 12.8619 15.0993 12.3552 15.2647C12.1392 15.335 10.1331 15.8419 7.61169 15.6743L4.87836 18.6808L4.87552 15.2163L4.85398 15.2107C1.18189 14.1744 1.30545 10.2891 1.34684 8.24973C1.38822 6.21034 1.76519 4.53943 2.88585 3.41596C4.89763 1.56389 9.04302 1.84071 9.04302 1.84071C12.5439 1.85646 14.2218 2.92706 14.6106 3.286C15.9019 4.41008 16.5601 7.09868 16.0788 11.0374Z" fill="black"/>
<path d="M12.9181 11.6073C12.9164 11.6056 12.3615 11.1358 12.0905 10.9333C11.8348 10.7426 11.4273 10.4861 11.1994 10.3555C10.7907 10.1243 10.3729 10.2695 10.2006 10.4968L9.84233 10.9542C9.65869 11.1859 9.37583 11.1471 9.30156 11.1319C8.77213 11.0003 8.20924 10.6717 7.63328 10.1181C7.05059 9.5595 6.69797 8.97609 6.57216 8.36962L6.56308 8.32964C6.52904 8.08039 6.57101 7.96508 6.6736 7.79522L6.69288 7.77943C6.93492 7.55609 7.38335 7.28437 7.44339 7.02554C7.61968 6.57605 6.85445 5.6388 6.74503 5.47338C6.74503 5.47338 6.1884 4.74201 5.99058 4.60245C5.77684 4.42582 5.44581 4.3251 5.11195 4.52879L5.09493 4.54114C4.13582 5.1853 3.78833 5.55549 3.88299 6.10799L3.9323 6.33019C4.41866 7.852 5.35794 9.47453 6.75864 10.9193C8.14401 12.346 9.64278 13.2006 11.12 13.7924C11.5038 13.919 11.9017 13.8099 12.3098 13.4639L12.3167 13.4588C12.6296 13.1685 12.8773 12.858 13.0621 12.5255L13.0638 12.5187C13.2435 12.1671 13.1828 11.834 12.9181 11.6073Z" fill="black"/>
<path d="M10.6185 8.27482C10.5601 8.27482 10.5113 8.22816 10.5085 8.16852C10.4892 7.77413 10.3821 7.47203 10.1899 7.27006C9.99891 7.06977 9.71263 6.95784 9.33964 6.93756C9.27897 6.93417 9.23195 6.88131 9.23537 6.81943C9.23873 6.75754 9.29031 6.71031 9.35156 6.71312C9.78234 6.73674 10.1174 6.87177 10.3486 7.11424C10.5788 7.35613 10.7069 7.70662 10.729 8.15726C10.7318 8.21914 10.6848 8.27148 10.6241 8.27482H10.6185Z" fill="black"/>
<path d="M11.7114 8.64712H11.7085C11.6479 8.6454 11.5997 8.5942 11.6008 8.53232C11.6178 7.77509 11.395 7.13485 10.9382 6.62853C10.7109 6.3759 10.4348 6.17622 10.1168 6.035C9.79825 5.89377 9.42693 5.8066 9.01428 5.77564C8.95361 5.7711 8.9077 5.71714 8.91222 5.65583C8.91678 5.59395 8.96947 5.54724 9.03014 5.55172C9.91103 5.61757 10.6077 5.92865 11.1014 6.47719C11.5974 7.02687 11.8401 7.72051 11.8219 8.53743C11.8202 8.59869 11.7709 8.64712 11.7114 8.64712Z" fill="black"/>
<path d="M12.8305 9.09179C12.7698 9.09179 12.7205 9.04231 12.7199 8.98038C12.7148 8.31094 12.6134 7.70553 12.4172 7.18013C12.2222 6.65859 11.928 6.20008 11.5426 5.81753C11.1566 5.4355 10.7178 5.14408 10.2382 4.95109C9.75753 4.75757 9.22185 4.65747 8.64594 4.65351C8.58527 4.65293 8.53595 4.60231 8.53652 4.54043C8.5371 4.47855 8.58642 4.42902 8.64709 4.42902H8.64762C9.85675 4.43804 10.8822 4.85099 11.6968 5.65717C12.1054 6.06224 12.4172 6.54776 12.6236 7.10078C12.8287 7.65042 12.9354 8.28279 12.941 8.97871C12.9416 9.0406 12.8922 9.09122 12.8316 9.09179H12.8305Z" fill="black"/>
</svg>
