<svg width="24" height="25" viewBox="0 0 24 25" fill="none" xmlns="http://www.w3.org/2000/svg">
<g filter="url(#filter0_d_13393_1872)">
<path fill-rule="evenodd" clip-rule="evenodd" d="M15.4286 16.5H8.57143C7.35901 16.5 6.19625 16.0252 5.33894 15.1799C4.48163 14.3347 4 13.1883 4 11.993V5.00704C4 3.8117 4.48163 2.66532 5.33894 1.82008C6.19625 0.974848 7.35901 0.5 8.57143 0.5H15.4286C16.641 0.5 17.8038 0.974848 18.6611 1.82008C19.5184 2.66532 20 3.8117 20 5.00704V11.993C20 12.5848 19.8818 13.1709 19.652 13.7177C19.4223 14.2645 19.0856 14.7614 18.6611 15.1799C18.2366 15.5984 17.7326 15.9304 17.178 16.1569C16.6234 16.3834 16.0289 16.5 15.4286 16.5ZM18.5143 4.66901C18.5143 3.92193 18.2133 3.20544 17.6774 2.67716C17.1416 2.14889 16.4149 1.85211 15.6571 1.85211H8.22857C7.47081 1.85211 6.74409 2.14889 6.20827 2.67716C5.67245 3.20544 5.37143 3.92193 5.37143 4.66901V11.993C5.37143 12.74 5.67245 13.4565 6.20827 13.9848C6.74409 14.5131 7.47081 14.8099 8.22857 14.8099H15.6571C16.4149 14.8099 17.1416 14.5131 17.6774 13.9848C18.2133 13.4565 18.5143 12.74 18.5143 11.993V4.66901ZM16.2286 5.11972C16.0251 5.11972 15.8263 5.06024 15.6571 4.94881C15.488 4.83738 15.3561 4.67901 15.2783 4.49371C15.2004 4.30841 15.1801 4.10451 15.2198 3.9078C15.2595 3.71108 15.3574 3.53039 15.5013 3.38857C15.6451 3.24675 15.8284 3.15016 16.0279 3.11103C16.2274 3.07191 16.4342 3.09199 16.6222 3.16874C16.8101 3.2455 16.9708 3.37547 17.0838 3.54224C17.1968 3.709 17.2571 3.90507 17.2571 4.10563C17.2571 4.37459 17.1488 4.63252 16.9559 4.8227C16.763 5.01288 16.5014 5.11972 16.2286 5.11972ZM11.9429 12.5563C11.1178 12.5563 10.3113 12.3151 9.62533 11.8632C8.93935 11.4113 8.40469 10.769 8.08896 10.0175C7.77324 9.26602 7.69062 8.4391 7.85158 7.64132C8.01253 6.84354 8.40982 6.11073 8.99321 5.53556C9.57659 4.96039 10.3199 4.5687 11.129 4.41001C11.9382 4.25132 12.777 4.33277 13.5392 4.64404C14.3014 4.95532 14.9529 5.48246 15.4113 6.15878C15.8696 6.83511 16.1143 7.63025 16.1143 8.44366C16.1143 9.53441 15.6748 10.5805 14.8925 11.3518C14.1102 12.123 13.0492 12.5563 11.9429 12.5563ZM11.9429 5.79577C11.4117 5.79577 10.8924 5.95107 10.4508 6.24202C10.0091 6.53298 9.66485 6.94652 9.46158 7.43036C9.2583 7.9142 9.20512 8.4466 9.30875 8.96024C9.41238 9.47388 9.66816 9.94569 10.0438 10.316C10.4194 10.6863 10.8979 10.9385 11.4189 11.0407C11.9399 11.1428 12.4799 11.0904 12.9706 10.89C13.4614 10.6896 13.8808 10.3502 14.1759 9.91475C14.4711 9.47931 14.6286 8.96736 14.6286 8.44366C14.6286 7.7414 14.3456 7.0679 13.842 6.57132C13.3383 6.07475 12.6552 5.79577 11.9429 5.79577Z" fill="#FF20A7"/>
<path fill-rule="evenodd" clip-rule="evenodd" d="M15.4286 16.5H8.57143C7.35901 16.5 6.19625 16.0252 5.33894 15.1799C4.48163 14.3347 4 13.1883 4 11.993V5.00704C4 3.8117 4.48163 2.66532 5.33894 1.82008C6.19625 0.974848 7.35901 0.5 8.57143 0.5H15.4286C16.641 0.5 17.8038 0.974848 18.6611 1.82008C19.5184 2.66532 20 3.8117 20 5.00704V11.993C20 12.5848 19.8818 13.1709 19.652 13.7177C19.4223 14.2645 19.0856 14.7614 18.6611 15.1799C18.2366 15.5984 17.7326 15.9304 17.178 16.1569C16.6234 16.3834 16.0289 16.5 15.4286 16.5ZM18.5143 4.66901C18.5143 3.92193 18.2133 3.20544 17.6774 2.67716C17.1416 2.14889 16.4149 1.85211 15.6571 1.85211H8.22857C7.47081 1.85211 6.74409 2.14889 6.20827 2.67716C5.67245 3.20544 5.37143 3.92193 5.37143 4.66901V11.993C5.37143 12.74 5.67245 13.4565 6.20827 13.9848C6.74409 14.5131 7.47081 14.8099 8.22857 14.8099H15.6571C16.4149 14.8099 17.1416 14.5131 17.6774 13.9848C18.2133 13.4565 18.5143 12.74 18.5143 11.993V4.66901ZM16.2286 5.11972C16.0251 5.11972 15.8263 5.06024 15.6571 4.94881C15.488 4.83738 15.3561 4.67901 15.2783 4.49371C15.2004 4.30841 15.1801 4.10451 15.2198 3.9078C15.2595 3.71108 15.3574 3.53039 15.5013 3.38857C15.6451 3.24675 15.8284 3.15016 16.0279 3.11103C16.2274 3.07191 16.4342 3.09199 16.6222 3.16874C16.8101 3.2455 16.9708 3.37547 17.0838 3.54224C17.1968 3.709 17.2571 3.90507 17.2571 4.10563C17.2571 4.37459 17.1488 4.63252 16.9559 4.8227C16.763 5.01288 16.5014 5.11972 16.2286 5.11972ZM11.9429 12.5563C11.1178 12.5563 10.3113 12.3151 9.62533 11.8632C8.93935 11.4113 8.40469 10.769 8.08896 10.0175C7.77324 9.26602 7.69062 8.4391 7.85158 7.64132C8.01253 6.84354 8.40982 6.11073 8.99321 5.53556C9.57659 4.96039 10.3199 4.5687 11.129 4.41001C11.9382 4.25132 12.777 4.33277 13.5392 4.64404C14.3014 4.95532 14.9529 5.48246 15.4113 6.15878C15.8696 6.83511 16.1143 7.63025 16.1143 8.44366C16.1143 9.53441 15.6748 10.5805 14.8925 11.3518C14.1102 12.123 13.0492 12.5563 11.9429 12.5563ZM11.9429 5.79577C11.4117 5.79577 10.8924 5.95107 10.4508 6.24202C10.0091 6.53298 9.66485 6.94652 9.46158 7.43036C9.2583 7.9142 9.20512 8.4466 9.30875 8.96024C9.41238 9.47388 9.66816 9.94569 10.0438 10.316C10.4194 10.6863 10.8979 10.9385 11.4189 11.0407C11.9399 11.1428 12.4799 11.0904 12.9706 10.89C13.4614 10.6896 13.8808 10.3502 14.1759 9.91475C14.4711 9.47931 14.6286 8.96736 14.6286 8.44366C14.6286 7.7414 14.3456 7.0679 13.842 6.57132C13.3383 6.07475 12.6552 5.79577 11.9429 5.79577Z" fill="url(#paint0_radial_13393_1872)"/>
<path fill-rule="evenodd" clip-rule="evenodd" d="M15.4286 16.5H8.57143C7.35901 16.5 6.19625 16.0252 5.33894 15.1799C4.48163 14.3347 4 13.1883 4 11.993V5.00704C4 3.8117 4.48163 2.66532 5.33894 1.82008C6.19625 0.974848 7.35901 0.5 8.57143 0.5H15.4286C16.641 0.5 17.8038 0.974848 18.6611 1.82008C19.5184 2.66532 20 3.8117 20 5.00704V11.993C20 12.5848 19.8818 13.1709 19.652 13.7177C19.4223 14.2645 19.0856 14.7614 18.6611 15.1799C18.2366 15.5984 17.7326 15.9304 17.178 16.1569C16.6234 16.3834 16.0289 16.5 15.4286 16.5ZM18.5143 4.66901C18.5143 3.92193 18.2133 3.20544 17.6774 2.67716C17.1416 2.14889 16.4149 1.85211 15.6571 1.85211H8.22857C7.47081 1.85211 6.74409 2.14889 6.20827 2.67716C5.67245 3.20544 5.37143 3.92193 5.37143 4.66901V11.993C5.37143 12.74 5.67245 13.4565 6.20827 13.9848C6.74409 14.5131 7.47081 14.8099 8.22857 14.8099H15.6571C16.4149 14.8099 17.1416 14.5131 17.6774 13.9848C18.2133 13.4565 18.5143 12.74 18.5143 11.993V4.66901ZM16.2286 5.11972C16.0251 5.11972 15.8263 5.06024 15.6571 4.94881C15.488 4.83738 15.3561 4.67901 15.2783 4.49371C15.2004 4.30841 15.1801 4.10451 15.2198 3.9078C15.2595 3.71108 15.3574 3.53039 15.5013 3.38857C15.6451 3.24675 15.8284 3.15016 16.0279 3.11103C16.2274 3.07191 16.4342 3.09199 16.6222 3.16874C16.8101 3.2455 16.9708 3.37547 17.0838 3.54224C17.1968 3.709 17.2571 3.90507 17.2571 4.10563C17.2571 4.37459 17.1488 4.63252 16.9559 4.8227C16.763 5.01288 16.5014 5.11972 16.2286 5.11972ZM11.9429 12.5563C11.1178 12.5563 10.3113 12.3151 9.62533 11.8632C8.93935 11.4113 8.40469 10.769 8.08896 10.0175C7.77324 9.26602 7.69062 8.4391 7.85158 7.64132C8.01253 6.84354 8.40982 6.11073 8.99321 5.53556C9.57659 4.96039 10.3199 4.5687 11.129 4.41001C11.9382 4.25132 12.777 4.33277 13.5392 4.64404C14.3014 4.95532 14.9529 5.48246 15.4113 6.15878C15.8696 6.83511 16.1143 7.63025 16.1143 8.44366C16.1143 9.53441 15.6748 10.5805 14.8925 11.3518C14.1102 12.123 13.0492 12.5563 11.9429 12.5563ZM11.9429 5.79577C11.4117 5.79577 10.8924 5.95107 10.4508 6.24202C10.0091 6.53298 9.66485 6.94652 9.46158 7.43036C9.2583 7.9142 9.20512 8.4466 9.30875 8.96024C9.41238 9.47388 9.66816 9.94569 10.0438 10.316C10.4194 10.6863 10.8979 10.9385 11.4189 11.0407C11.9399 11.1428 12.4799 11.0904 12.9706 10.89C13.4614 10.6896 13.8808 10.3502 14.1759 9.91475C14.4711 9.47931 14.6286 8.96736 14.6286 8.44366C14.6286 7.7414 14.3456 7.0679 13.842 6.57132C13.3383 6.07475 12.6552 5.79577 11.9429 5.79577Z" fill="url(#paint1_radial_13393_1872)"/>
<path fill-rule="evenodd" clip-rule="evenodd" d="M15.4286 16.5H8.57143C7.35901 16.5 6.19625 16.0252 5.33894 15.1799C4.48163 14.3347 4 13.1883 4 11.993V5.00704C4 3.8117 4.48163 2.66532 5.33894 1.82008C6.19625 0.974848 7.35901 0.5 8.57143 0.5H15.4286C16.641 0.5 17.8038 0.974848 18.6611 1.82008C19.5184 2.66532 20 3.8117 20 5.00704V11.993C20 12.5848 19.8818 13.1709 19.652 13.7177C19.4223 14.2645 19.0856 14.7614 18.6611 15.1799C18.2366 15.5984 17.7326 15.9304 17.178 16.1569C16.6234 16.3834 16.0289 16.5 15.4286 16.5ZM18.5143 4.66901C18.5143 3.92193 18.2133 3.20544 17.6774 2.67716C17.1416 2.14889 16.4149 1.85211 15.6571 1.85211H8.22857C7.47081 1.85211 6.74409 2.14889 6.20827 2.67716C5.67245 3.20544 5.37143 3.92193 5.37143 4.66901V11.993C5.37143 12.74 5.67245 13.4565 6.20827 13.9848C6.74409 14.5131 7.47081 14.8099 8.22857 14.8099H15.6571C16.4149 14.8099 17.1416 14.5131 17.6774 13.9848C18.2133 13.4565 18.5143 12.74 18.5143 11.993V4.66901ZM16.2286 5.11972C16.0251 5.11972 15.8263 5.06024 15.6571 4.94881C15.488 4.83738 15.3561 4.67901 15.2783 4.49371C15.2004 4.30841 15.1801 4.10451 15.2198 3.9078C15.2595 3.71108 15.3574 3.53039 15.5013 3.38857C15.6451 3.24675 15.8284 3.15016 16.0279 3.11103C16.2274 3.07191 16.4342 3.09199 16.6222 3.16874C16.8101 3.2455 16.9708 3.37547 17.0838 3.54224C17.1968 3.709 17.2571 3.90507 17.2571 4.10563C17.2571 4.37459 17.1488 4.63252 16.9559 4.8227C16.763 5.01288 16.5014 5.11972 16.2286 5.11972ZM11.9429 12.5563C11.1178 12.5563 10.3113 12.3151 9.62533 11.8632C8.93935 11.4113 8.40469 10.769 8.08896 10.0175C7.77324 9.26602 7.69062 8.4391 7.85158 7.64132C8.01253 6.84354 8.40982 6.11073 8.99321 5.53556C9.57659 4.96039 10.3199 4.5687 11.129 4.41001C11.9382 4.25132 12.777 4.33277 13.5392 4.64404C14.3014 4.95532 14.9529 5.48246 15.4113 6.15878C15.8696 6.83511 16.1143 7.63025 16.1143 8.44366C16.1143 9.53441 15.6748 10.5805 14.8925 11.3518C14.1102 12.123 13.0492 12.5563 11.9429 12.5563ZM11.9429 5.79577C11.4117 5.79577 10.8924 5.95107 10.4508 6.24202C10.0091 6.53298 9.66485 6.94652 9.46158 7.43036C9.2583 7.9142 9.20512 8.4466 9.30875 8.96024C9.41238 9.47388 9.66816 9.94569 10.0438 10.316C10.4194 10.6863 10.8979 10.9385 11.4189 11.0407C11.9399 11.1428 12.4799 11.0904 12.9706 10.89C13.4614 10.6896 13.8808 10.3502 14.1759 9.91475C14.4711 9.47931 14.6286 8.96736 14.6286 8.44366C14.6286 7.7414 14.3456 7.0679 13.842 6.57132C13.3383 6.07475 12.6552 5.79577 11.9429 5.79577Z" fill="#343433"/>
</g>
<defs>
<filter id="filter0_d_13393_1872" x="0" y="0.5" width="24" height="24" filterUnits="userSpaceOnUse" color-interpolation-filters="sRGB">
<feFlood flood-opacity="0" result="BackgroundImageFix"/>
<feColorMatrix in="SourceAlpha" type="matrix" values="0 0 0 0 0 0 0 0 0 0 0 0 0 0 0 0 0 0 127 0" result="hardAlpha"/>
<feOffset dy="4"/>
<feGaussianBlur stdDeviation="2"/>
<feComposite in2="hardAlpha" operator="out"/>
<feColorMatrix type="matrix" values="0 0 0 0 0 0 0 0 0 0 0 0 0 0 0 0 0 0 0.25 0"/>
<feBlend mode="normal" in2="BackgroundImageFix" result="effect1_dropShadow_13393_1872"/>
<feBlend mode="normal" in="SourceGraphic" in2="effect1_dropShadow_13393_1872" result="shape"/>
</filter>
<radialGradient id="paint0_radial_13393_1872" cx="0" cy="0" r="1" gradientUnits="userSpaceOnUse" gradientTransform="translate(8 16) rotate(106.302) scale(11.044)">
<stop stop-color="#FFFCB2"/>
<stop offset="0.233898" stop-color="#FFB21C" stop-opacity="0.81768"/>
<stop offset="1" stop-color="#FF24BE" stop-opacity="0"/>
</radialGradient>
<radialGradient id="paint1_radial_13393_1872" cx="0" cy="0" r="1" gradientUnits="userSpaceOnUse" gradientTransform="translate(7.8 0.5) rotate(75.3027) scale(6.30635 14.7887)">
<stop stop-color="#2E62DF"/>
<stop offset="1" stop-color="#6E48D8" stop-opacity="0"/>
</radialGradient>
</defs>
</svg>
